name rise43.5482peak65.4966fall89.1036.mot
datacolumns 19
datarows 17
range 14.48327500000000 14.50994500000000
endheader
time	ground_force1_vx	ground_force1_vy	ground_force1_vz	ground_force1_px	ground_force1_py	ground_force1_pz	ground_force2_vx	ground_force2_vy	ground_force2_vz	ground_force2_px	ground_force2_py	ground_force2_pz	ground_torque1_x	ground_torque1_y	ground_torque1_z	ground_torque2_x	ground_torque2_y	ground_torque2_z	
14.48327500000000	-12.67276700000000	45.55074900000000	-11.13636000000000	0.29668600000000	0.00000000000000	0.07114500000000	-61.10645500000000	785.28773400000000	-43.77968900000000	0.09142400000000	0.00000000000000	-0.08941900000000	0.00000000000000	-6.35144700000000	0.00000000000000	0.00000000000000	-16.57267400000000	0.00000000000000	
14.48495300000000	-13.57125100000000	52.09536400000000	-12.18065200000000	0.29980300000000	0.00000000000000	0.07183500000000	-62.16726800000000	782.13759900000002	-43.37583400000000	0.09044400000000	0.00000000000000	-0.08931300000000	0.00000000000000	-7.01538200000000	0.00000000000000	0.00000000000000	-16.64883900000000	0.00000000000000	
14.48661800000000	-14.22390500000000	58.59134800000000	-13.06884400000000	0.30276500000000	0.00000000000000	0.07248000000000	-63.23331100000000	778.85185100000001	-42.95312500000000	0.08946200000000	0.00000000000000	-0.08920600000000	0.00000000000000	-7.60341600000000	0.00000000000000	0.00000000000000	-16.72645800000000	0.00000000000000	
14.48827000000000	-14.61377800000000	64.97743699999999	-13.78431100000000	0.30559500000000	0.00000000000000	0.07308400000000	-64.30271900000000	775.42655700000000	-42.51127700000000	0.08848100000000	0.00000000000000	-0.08909600000000	0.00000000000000	-8.10488200000000	0.00000000000000	0.00000000000000	-16.80519800000000	0.00000000000000	
14.48995000000000	-14.73662800000000	71.21743300000000	-14.31989300000000	0.30830900000000	0.00000000000000	0.07365100000000	-65.37353299999999	771.85778100000005	-42.05003900000000	0.08750000000000	0.00000000000000	-0.08898500000000	0.00000000000000	-8.51426900000000	0.00000000000000	0.00000000000000	-16.88471100000000	0.00000000000000	
14.49160400000000	-14.59967700000000	77.29957000000000	-14.67714700000000	0.31092100000000	0.00000000000000	0.07418600000000	-66.44369500000001	768.14160300000003	-41.56919900000000	0.08652200000000	0.00000000000000	-0.08887000000000	0.00000000000000	-8.83092000000000	0.00000000000000	0.00000000000000	-16.96463100000000	0.00000000000000	
14.49327800000000	-14.21961800000000	83.23396400000000	-14.86501300000000	0.31344400000000	0.00000000000000	0.07469100000000	-67.51105900000000	764.27413000000001	-41.06858400000000	0.08554600000000	0.00000000000000	-0.08875300000000	0.00000000000000	-9.05837700000000	0.00000000000000	0.00000000000000	-17.04457500000000	0.00000000000000	
14.49494300000000	-13.62019400000000	89.04869700000000	-14.89810100000000	0.31588600000000	0.00000000000000	0.07516900000000	-68.57339200000000	760.25151600000004	-40.54806500000000	0.08457400000000	0.00000000000000	-0.08863400000000	0.00000000000000	-9.20350500000000	0.00000000000000	0.00000000000000	-17.12414700000000	0.00000000000000	
14.49661200000000	-12.82960800000000	94.78509800000000	-14.79481200000000	0.31825300000000	0.00000000000000	0.07562200000000	-69.62837800000000	756.06997899999999	-40.00755700000000	0.08360800000000	0.00000000000000	-0.08851200000000	0.00000000000000	-9.27548100000000	0.00000000000000	0.00000000000000	-17.20293500000000	0.00000000000000	
14.49826900000000	-11.87801300000000	100.49273599999999	-14.57547100000000	0.32055200000000	0.00000000000000	0.07605100000000	-70.67362700000000	751.72581900000000	-39.44702300000000	0.08264700000000	0.00000000000000	-0.08838700000000	0.00000000000000	-9.28477800000000	0.00000000000000	0.00000000000000	-17.28051400000000	0.00000000000000	
14.49994100000000	-10.79526300000000	106.22461100000000	-14.26063000000000	0.32278800000000	0.00000000000000	0.07645900000000	-71.70667700000000	747.21543799999995	-38.86647600000000	0.08169300000000	0.00000000000000	-0.08826000000000	0.00000000000000	-9.24221400000000	0.00000000000000	0.00000000000000	-17.35644900000000	0.00000000000000	
14.50160400000000	-9.60907700000000	112.03285700000001	-13.86963500000000	0.32496300000000	0.00000000000000	0.07684800000000	-72.72500200000000	742.53536099999997	-38.26597800000000	0.08074800000000	0.00000000000000	-0.08813000000000	0.00000000000000	-9.15812800000000	0.00000000000000	0.00000000000000	-17.43029300000000	0.00000000000000	
14.50327800000000	-8.34366700000000	117.96523300000000	-13.41954100000000	0.32708100000000	0.00000000000000	0.07721800000000	-73.72601899999999	737.68225399999994	-37.64564700000000	0.07981100000000	0.00000000000000	-0.08799700000000	0.00000000000000	-9.04174000000000	0.00000000000000	0.00000000000000	-17.50158800000000	0.00000000000000	
14.50494300000000	-7.01886900000000	124.06252400000000	-12.92438000000000	0.32914200000000	0.00000000000000	0.07757100000000	-74.70709200000000	732.65294700000004	-37.00565400000000	0.07888300000000	0.00000000000000	-0.08786200000000	0.00000000000000	-8.90070400000000	0.00000000000000	0.00000000000000	-17.56987100000000	0.00000000000000	
14.50660900000000	-5.64975600000000	130.35688700000000	-12.39479000000000	0.33114900000000	0.00000000000000	0.07790800000000	-75.66554400000000	727.44445399999995	-36.34622600000000	0.07796700000000	0.00000000000000	-0.08772300000000	0.00000000000000	-8.74084900000000	0.00000000000000	0.00000000000000	-17.63466800000000	0.00000000000000	
14.50827400000000	-4.24666200000000	136.87109699999999	-11.83796100000000	0.33310200000000	0.00000000000000	0.07822900000000	-76.59866000000000	722.05399599999998	-35.66764500000000	0.07706100000000	0.00000000000000	-0.08758200000000	0.00000000000000	-8.56611600000000	0.00000000000000	0.00000000000000	-17.69550300000000	0.00000000000000	
14.50994500000000	-2.81556100000000	143.61859999999999	-11.25785100000000	0.33500100000000	0.00000000000000	0.07853700000000	-77.50369400000000	716.47902299999998	-34.97025200000000	0.07616800000000	0.00000000000000	-0.08743800000000	0.00000000000000	-8.37863500000000	0.00000000000000	0.00000000000000	-17.75189400000000	0.00000000000000	
